# xmcd CD database file
#
# Track frame offsets:
#	150
#	16443
#	55635
#	76790
#	107078
#	155843
#	184103
#	204473
#	272605
#	294415
#
# Disc length: 4272 seconds
#
# Revision: 0
# Processed by: cddbd v1.5.1PL0 Copyright (c) Steve Scherf et al.
# Submitted via: CDex 1.51
#
DISCID=8110ae0a
DTITLE=oscar benton blues band - live   (1990)
DYEAR=1990
DGENRE=Blues
TTITLE0=when i'd rule the world
TTITLE1=sweet little angel
TTITLE2=feel so good
TTITLE3=i'll be around
TTITLE4=please love me
TTITLE5=how many more years
TTITLE6=we're gonna rock
TTITLE7=draggin' round
TTITLE8=bensonhurst blues
TTITLE9=mojo working
EXTD=YEAR: 1990
EXTT0=
EXTT1=
EXTT2=
EXTT3=
EXTT4=
EXTT5=
EXTT6=
EXTT7=
EXTT8=
EXTT9=
PLAYORDER=
